<svg xmlns="http://www.w3.org/2000/svg" viewBox="0 0 64 64">
  <rect width="20" height="20" x="7" y="37" fill="#85cbf8" rx="2" ry="2"/>
  <path fill="#6fc6f0" d="M10 47h14a3 3 0 0 1 3 3v5a2 2 0 0 1-2 2H9a2 2 0 0 1-2-2v-5a3 3 0 0 1 3-3z"/>
  <rect width="20" height="20" x="37" y="7" fill="#85cbf8" rx="2" ry="2"/>
  <path fill="#6fc6f0" d="M40 17h14a3 3 0 0 1 3 3v5a2 2 0 0 1-2 2H39a2 2 0 0 1-2-2v-5a3 3 0 0 1 3-3z"/>
  <path fill="#f9dd8f" d="M27 13h10v6H27zm0 32h10v6H27z"/>
  <rect width="20" height="20" x="7" y="7" fill="#ed7899" rx="2" ry="2"/>
  <rect width="20" height="20" x="37" y="37" fill="#85cbf8" rx="2" ry="2"/>
  <path fill="#f9dd8f" d="M13 27h6v10h-6zm32 0h6v10h-6z"/>
  <path fill="#8d6c9f" d="M55 28a3 3 0 0 0 3-3V9a3 3 0 0 0-3-3H39a3 3 0 0 0-3 3v3h-8V9a3 3 0 0 0-3-3H9a3 3 0 0 0-3 3v16a3 3 0 0 0 3 3h3v8H9a3 3 0 0 0-3 3v16a3 3 0 0 0 3 3h16a3 3 0 0 0 3-3v-3h8v3a3 3 0 0 0 3 3h16a3 3 0 0 0 3-3V39a3 3 0 0 0-3-3h-3v-8zM38 9a1 1 0 0 1 1-1h16a1 1 0 0 1 1 1v16a1 1 0 0 1-1 1H39a1 1 0 0 1-1-1zm6 27h-5a3 3 0 0 0-3 3v5h-8v-5a3 3 0 0 0-3-3h-5v-8h5a3 3 0 0 0 3-3v-5h8v5a3 3 0 0 0 3 3h5zm-8-22v4h-8v-4zM8 25V9a1 1 0 0 1 1-1h16a1 1 0 0 1 1 1v16a1 1 0 0 1-1 1H9a1 1 0 0 1-1-1zm6 3h4v8h-4zm12 27a1 1 0 0 1-1 1H9a1 1 0 0 1-1-1V39a1 1 0 0 1 1-1h16a1 1 0 0 1 1 1zm2-5v-4h8v4zm28-11v16a1 1 0 0 1-1 1H39a1 1 0 0 1-1-1V39a1 1 0 0 1 1-1h16a1 1 0 0 1 1 1zm-6-3h-4v-8h4z"/>
  <path fill="#8d6c9f" d="M12 45a1 1 0 0 0-1 1v2a1 1 0 0 0 2 0v-2a1 1 0 0 0-1-1zm5 0a1 1 0 0 0-1 1v2a1 1 0 0 0 2 0v-2a1 1 0 0 0-1-1zm5 0a1 1 0 0 0-1 1v2a1 1 0 0 0 2 0v-2a1 1 0 0 0-1-1zm20-26a1 1 0 0 0 1-1v-2a1 1 0 0 0-2 0v2a1 1 0 0 0 1 1zm5 0a1 1 0 0 0 1-1v-2a1 1 0 0 0-2 0v2a1 1 0 0 0 1 1zm5 0a1 1 0 0 0 1-1v-2a1 1 0 0 0-2 0v2a1 1 0 0 0 1 1z"/>
</svg>
