
<svg xmlns="http://www.w3.org/2000/svg" viewBox="0 0 64 64">
  <circle cx="25" cy="25" r="24" fill="#ffeb9b"/>
  <path fill="#f6d397" d="M11.14 38.86l27.72-27.72a4 4 0 0 1 6.11.54A24 24 0 0 1 11.68 45a4 4 0 0 1-.54-6.14z"/>
  <path fill="#dadcec" d="M40.17246168 44.0008326l3.91737157-3.91737156 2.82842713 2.82842713-3.91737157 3.91737157z"/>
  <rect width="8.49" height="22.51" x="48.8" y="41.79" fill="#cda1a7" rx="4" ry="4" transform="rotate(-45 53.04 53.04)"/>
  <rect width="4.24" height="22.51" x="49.42" y="43.29" fill="#c4939c" rx="2.12" ry="2.12" transform="rotate(-45 51.542 54.54)"/>
  <circle cx="25" cy="25" r="16" fill="#bbdef9"/>
  <path fill="#8d6c9f" d="M11.89 29.91a1 1 0 0 0-1.33-.48l-1.81.84a1 1 0 0 0 .85 1.81l1.81-.84a1 1 0 0 0 .48-1.33zm33.89-4.55l-4.07-4.07a1 1 0 0 0-1.41 0l-4.07 4.07a1 1 0 0 0 1.41 1.41L40 24.45V25a15 15 0 0 1-19.76 14.23 1 1 0 0 0-.63 1.9A17 17 0 0 0 42 25v-.62l2.4 2.4a1 1 0 0 0 1.41-1.41z"/>
  <path fill="#8d6c9f" d="M61.88 54.46L51.54 44.12A5 5 0 0 0 48 42.66h-.07a1 1 0 0 0-.23-.37l-2.54-2.54a25 25 0 1 0-5.41 5.41l2.54 2.54a1 1 0 0 0 .37.23 5 5 0 0 0 1.45 3.6l10.35 10.35a5 5 0 0 0 7.07 0l.34-.34a5 5 0 0 0 .01-7.08zM25 48a23 23 0 1 1 23-23 23 23 0 0 1-23 23zm19.12-3.54a4.94 4.94 0 0 0-.92 1.32l-1.88-1.88a25.2 25.2 0 0 0 2.59-2.59l1.87 1.87a5 5 0 0 0-1.32.92zm16.34 15.66l-.34.34a3.07 3.07 0 0 1-4.24 0L45.54 50.12a3 3 0 0 1 0-4.24l.34-.34a3 3 0 0 1 4.24 0l10.34 10.34a3 3 0 0 1 0 4.24z"/>
  <path fill="#8d6c9f" d="M15.49 36.11l-1.15 1.64A1 1 0 0 0 16 38.89l1.15-1.64a1 1 0 0 0-1.64-1.15zM14 33.21a1 1 0 0 0-1.41-.12l-1.53 1.29a1 1 0 0 0 1.29 1.53l1.53-1.29a1 1 0 0 0 .12-1.41zm19.62-20.32a1 1 0 0 0 .82-.42l1.16-1.63A1 1 0 1 0 34 9.68l-1.16 1.63a1 1 0 0 0 .81 1.58zm2.29 2.48a1 1 0 0 0 1.41.13l1.54-1.28a1 1 0 1 0-1.28-1.54L36 14a1 1 0 0 0-.09 1.37zM38 18.68a1 1 0 0 0 1.33.49l1.82-.83a1 1 0 1 0-.83-1.82l-1.82.83a1 1 0 0 0-.5 1.33zM9 27.07a1 1 0 0 0 .71-.29l4.07-4.07a1 1 0 0 0-1.41-1.41l-2.29 2.29a15 15 0 0 1 19.38-12.92 1 1 0 0 0 .59-1.91 17 17 0 0 0-22 15l-2.41-2.47a1 1 0 0 0-1.41 1.41l4.07 4.07a1 1 0 0 0 .7.3z"/>
  <circle cx="25" cy="25" r="7" fill="#d2edff"/>
  <circle cx="21" cy="21" r="4" fill="#f3f3f3"/>
  <circle cx="29.5" cy="29.5" r="1.5" fill="#f3f3f3"/>
</svg>
