<svg xmlns="http://www.w3.org/2000/svg" viewBox="0 0 64 64">
  <path fill="#c5e4fa" d="M5 9h54v36H5z"/>
  <path fill="#e3f2ff" d="M59 12.51L26.51 45h17.25L59 29.76V12.51M15.9 45h7.7L59.52 9.08h-7.7L15.9 45m-3 0h-2.3L46.52 9.08h2.3L12.9 45"/>
  <path fill="#ced8ed" d="M5 45h54v7a3 3 0 0 1-3 3H8a3 3 0 0 1-3-3v-7z"/>
  <path fill="#ed7899" d="M33 35h6v9h-6z"/>
  <path fill="#72caaf" d="M39 37h6v7h-6z"/>
  <path fill="#ffeb9b" d="M27 39h6v5h-6z"/>
  <path fill="#85cbf8" d="M21 39h6v5h-6z"/>
  <path fill="#fff8f8" d="M15 41h6v3h-6z"/>
  <path fill="#faefde" d="M45 31h6v13h-6z"/>
  <circle cx="42" cy="25" r="2" fill="#fff8f8"/>
  <circle cx="36" cy="20" r="2" fill="#fff8f8"/>
  <circle cx="29" cy="29" r="2" fill="#fff8f8"/>
  <circle cx="23" cy="24" r="2" fill="#fff8f8"/>
  <circle cx="15" cy="31" r="2" fill="#fff8f8"/>
  <path fill="#8d6c9f" d="M57 8H7a3 3 0 0 0-3 3v42a3 3 0 0 0 3 3h50a3 3 0 0 0 3-3V11a3 3 0 0 0-3-3zM7 10h50a1 1 0 0 1 1 1v33h-6V31a1 1 0 0 0-1-1h-6a1 1 0 0 0-1 1v5h-4v-1a1 1 0 0 0-1-1h-6a1 1 0 0 0-1 1v3H21a1 1 0 0 0-1 1v1h-5a1 1 0 0 0-1 1v3H6V11a1 1 0 0 1 1-1zm33 34v-6h4v6zm-6 0v-8h4v8zm-6 0v-4h4v4zm-6 0v-4h4v4zm-6 0v-2h4v2zm30-7v-5h4v12h-4zm11 17H7a1 1 0 0 1-1-1v-7h52v7a1 1 0 0 1-1 1z"/>
  <path fill="#8d6c9f" d="M20 48a1 1 0 0 0-1 1v2a1 1 0 0 0 2 0v-2a1 1 0 0 0-1-1zm-5 0a1 1 0 0 0-1 1v2a1 1 0 0 0 2 0v-2a1 1 0 0 0-1-1zm-5 0a1 1 0 0 0-1 1v2a1 1 0 0 0 2 0v-2a1 1 0 0 0-1-1zm25 0a1 1 0 0 0-1 1v2a1 1 0 0 0 2 0v-2a1 1 0 0 0-1-1zm5 0a1 1 0 0 0-1 1v2a1 1 0 0 0 2 0v-2a1 1 0 0 0-1-1zm5 0a1 1 0 0 0-1 1v2a1 1 0 0 0 2 0v-2a1 1 0 0 0-1-1zm5 0a1 1 0 0 0-1 1v2a1 1 0 0 0 2 0v-2a1 1 0 0 0-1-1zm5 0a1 1 0 0 0-1 1v2a1 1 0 0 0 2 0v-2a1 1 0 0 0-1-1zm-30 0a1 1 0 0 0-1 1v2a1 1 0 0 0 2 0v-2a1 1 0 0 0-1-1zm5 0a1 1 0 0 0-1 1v2a1 1 0 0 0 2 0v-2a1 1 0 0 0-1-1zM15 34a3 3 0 0 0 2.78-4.11l3.76-3.28a2.9 2.9 0 0 0 3 0L26.2 28a3 3 0 0 0-.2 1 3 3 0 1 0 5.45-1.72L35 22.82a2.86 2.86 0 0 0 2.5-.25L39.2 24a3 3 0 0 0-.2 1 3 3 0 0 0 6 0 3 3 0 0 0-.37-1.42l5.38-6v3.88a1 1 0 0 0 2 0V15a1.24 1.24 0 0 0-.31-.7 1 1 0 0 0-.12-.07.66.66 0 0 0-.4-.16A1 1 0 0 0 51 14h-6.49a1 1 0 0 0 0 2h4.24l-5.61 6.23a2.94 2.94 0 0 0-2.67.2L38.8 21a3 3 0 0 0 .2-1 3 3 0 0 0-6 0 3 3 0 0 0 .46 1.58l-3.64 4.55a2.83 2.83 0 0 0-2.34.3L25.8 25a3 3 0 0 0 .2-1 3 3 0 1 0-5.78 1.1l-3.76 3.29A3 3 0 0 0 15 28a3 3 0 0 0 0 6zm28-9a1 1 0 1 1-1-1 1 1 0 0 1 1 1zm-7-6a1 1 0 1 1-1 1 1 1 0 0 1 1-1zm-6 10a1 1 0 1 1-1-1 1 1 0 0 1 1 1zm-7-6a1 1 0 1 1-1 1 1 1 0 0 1 1-1zm-8 7a1 1 0 1 1-1 1 1 1 0 0 1 1-1z"/>
  <path fill="#fff8f8" d="M13.5 13l1.24 2.26L17 16.5l-2.26 1.24L13.5 20l-1.24-2.26L10 16.5l2.26-1.24L13.5 13m12.92 1.16l.85 1.57 1.57.85-1.57.86-.85 1.56-.86-1.56-1.56-.86 1.56-.85.86-1.57M10.65 24.7l.58 1.07 1.07.58-1.07.58-.58 1.07-.59-1.07L9 26.35l1.06-.58.59-1.07"/>
</svg>
