<?xml version="1.0" standalone="no"?>
<!DOCTYPE svg PUBLIC "-//W3C//DTD SVG 20010904//EN"
 "http://www.w3.org/TR/2001/REC-SVG-20010904/DTD/svg10.dtd">
<svg version="1.0" xmlns="http://www.w3.org/2000/svg"
 width="924.000000pt" height="924.000000pt" viewBox="0 0 924.000000 924.000000"
 preserveAspectRatio="xMidYMid meet">
<metadata>
Created by potrace 1.11, written by Peter Selinger 2001-2013
</metadata>
<g transform="translate(0.000000,924.000000) scale(0.100000,-0.100000)"
fill="#000000" stroke="none">
<path d="M3310 9221 c-71 -20 -160 -60 -160 -73 0 -4 -6 -8 -14 -8 -7 0 -42
-30 -76 -67 -63 -67 -122 -172 -137 -243 -10 -51 -7 -269 4 -312 14 -48 66
-158 75 -158 5 0 8 -5 8 -11 0 -6 6 -17 14 -25 8 -7 23 -24 33 -36 18 -23 34
-36 106 -83 148 -99 359 -106 528 -18 62 32 149 105 149 125 0 5 4 7 8 4 12
-7 90 132 98 174 4 19 11 41 17 48 17 22 12 240 -7 307 -41 140 -141 266 -263
332 -106 57 -267 75 -383 44z"/>
<path d="M6037 9124 c-3 -4 -26 -8 -50 -10 -99 -7 -184 -39 -262 -97 -48 -37
-4015 -4003 -4066 -4067 -42 -52 -93 -158 -104 -215 -16 -84 -13 -164 10 -270
13 -59 71 -151 136 -215 36 -36 72 -70 80 -75 19 -14 110 -57 129 -60 8 -2 15
-4 15 -5 0 -7 56 -13 140 -16 86 -3 110 0 174 22 41 14 98 41 128 61 44 29
2651 2625 2654 2643 0 3 26 28 57 55 32 28 84 80 117 116 33 37 62 67 65 68 7
1 599 593 601 601 1 3 54 55 119 115 65 61 118 112 119 116 1 5 211 217 211
213 0 -3 104 107 141 149 22 24 54 81 89 158 7 15 13 40 14 56 2 16 6 34 9 40
10 16 1 173 -12 220 -21 77 -71 162 -132 228 -34 36 -68 65 -75 65 -8 0 -14 4
-14 9 0 4 -30 22 -67 39 -58 26 -116 41 -183 47 -9 0 -20 4 -26 8 -6 3 -14 4
-17 1z"/>
<path d="M7539 8058 c-38 -9 -82 -24 -97 -32 -15 -9 -43 -23 -62 -32 -20 -9
-679 -662 -1615 -1598 -869 -869 -1590 -1594 -1603 -1610 -33 -40 -90 -157
-99 -202 -9 -46 -9 -209 0 -242 13 -49 20 -68 41 -112 11 -25 24 -46 29 -48 4
-2 7 -8 7 -13 0 -14 93 -119 105 -119 4 0 15 -8 24 -17 9 -10 45 -32 81 -49
60 -29 79 -36 150 -49 37 -7 131 -7 160 0 14 3 34 7 45 9 35 5 99 30 124 48
13 10 31 18 40 18 14 0 3175 3154 3227 3220 30 38 73 136 88 199 16 70 13 192
-8 261 -39 130 -143 262 -246 312 -14 7 -27 15 -30 19 -4 5 -71 30 -90 34 -3
1 -21 5 -40 9 -62 15 -160 13 -231 -6z"/>
<path d="M1970 7833 c-25 -8 -74 -29 -110 -46 -59 -29 -139 -105 -881 -847
-727 -726 -899 -906 -899 -944 0 -6 -7 -23 -14 -38 -46 -88 -41 -298 8 -393 9
-17 16 -36 16 -42 0 -7 5 -13 12 -13 6 0 9 -3 5 -6 -17 -17 139 -167 211 -203
63 -32 186 -66 202 -56 5 3 11 1 15 -5 4 -6 10 -8 15 -5 5 3 35 8 67 10 83 7
90 9 179 51 44 21 102 59 139 93 101 91 1615 1623 1620 1639 3 12 11 22 16 22
6 0 8 4 4 9 -3 6 3 14 12 20 10 6 15 11 10 11 -4 0 0 17 9 38 19 46 24 64 30
127 3 28 7 58 9 68 2 9 0 17 -5 17 -4 0 -5 11 -2 25 5 28 -12 96 -39 163 -10
23 -18 45 -18 48 1 9 -73 98 -112 134 -41 39 -138 100 -166 105 -10 2 -19 4
-20 5 -2 2 -7 4 -13 5 -5 1 -11 3 -12 5 -24 18 -230 20 -288 3z"/>
<path d="M8647 6424 c-1 -1 -25 -5 -52 -8 -81 -9 -174 -50 -249 -111 -45 -36
-5408 -5395 -5449 -5444 -9 -12 -17 -25 -17 -30 0 -5 -4 -11 -8 -13 -11 -4
-57 -104 -67 -143 -4 -16 -9 -39 -12 -50 -5 -22 -5 -161 0 -185 28 -124 77
-213 159 -290 61 -56 66 -60 129 -91 79 -40 182 -61 267 -55 73 5 197 40 223
62 8 8 19 14 23 14 4 0 28 17 54 38 25 20 1263 1255 2751 2743 2551 2551 2708
2710 2744 2779 22 41 41 83 43 94 2 12 7 32 11 46 14 53 8 204 -11 265 -11 33
-24 66 -30 74 -5 7 -11 20 -12 28 -2 8 -12 25 -23 37 -12 12 -21 26 -21 30 0
16 -107 108 -160 139 -30 17 -55 30 -55 29 0 -2 -16 4 -36 12 -43 18 -191 40
-202 30z"/>
<path d="M8580 3736 c-3 -3 -21 -8 -40 -11 -45 -8 -128 -46 -182 -83 -24 -17
-207 -194 -408 -395 -404 -403 -431 -431 -454 -473 -9 -16 -25 -42 -35 -59
-16 -28 -27 -57 -38 -110 -9 -38 -10 -230 -1 -241 4 -6 9 -23 10 -38 1 -14 6
-26 10 -26 4 0 8 -7 8 -15 0 -9 11 -33 25 -55 14 -22 25 -43 25 -46 0 -20 145
-145 196 -169 33 -15 66 -31 75 -36 44 -21 178 -29 271 -16 55 8 144 47 207
90 59 40 810 793 851 852 33 48 68 120 76 158 15 68 18 90 17 170 -1 53 -6 94
-13 102 -7 8 -10 15 -6 15 11 0 -35 105 -69 155 -36 55 -117 133 -161 155 -16
8 -36 20 -44 26 -8 7 -35 18 -60 25 -25 7 -52 14 -60 17 -25 7 -195 14 -200 8z"/>
<path d="M594 3709 c-40 -4 -89 -13 -110 -20 -22 -7 -42 -12 -46 -11 -5 1 -8
-2 -8 -6 0 -5 -6 -9 -13 -9 -61 0 -262 -204 -279 -283 -2 -8 -6 -17 -9 -20
-17 -15 -36 -135 -33 -214 6 -163 92 -322 224 -413 14 -9 28 -22 32 -27 4 -6
8 -7 8 -3 0 5 17 -1 38 -11 51 -27 89 -40 142 -48 40 -6 127 -9 140 -4 3 1 22
3 42 6 21 2 57 13 82 24 24 10 47 16 50 13 3 -4 6 -1 6 5 0 7 5 12 11 12 17 0
96 58 141 103 170 171 204 440 82 647 -81 139 -226 236 -382 256 -19 2 -37 5
-41 7 -3 2 -38 0 -77 -4z"/>
<path d="M3006 3535 c-80 -23 -167 -71 -238 -132 -37 -32 -67 -60 -67 -63 -1
-3 -298 -302 -662 -665 -686 -685 -737 -737 -788 -795 -65 -75 -119 -228 -115
-330 5 -161 49 -265 159 -375 57 -57 144 -117 170 -116 2 0 20 -6 40 -15 83
-34 243 -34 332 2 71 28 113 49 113 57 0 4 7 7 16 7 8 0 374 359 813 798 778
777 799 799 833 872 19 41 40 96 47 122 10 45 16 166 8 198 -2 8 -7 31 -11 50
-5 19 -11 40 -14 45 -4 6 -7 15 -8 20 -10 54 -95 168 -168 224 -30 23 -88 56
-128 73 -63 27 -87 32 -178 34 -69 2 -122 -1 -154 -11z"/>
<path d="M5845 1080 c-115 -27 -181 -65 -271 -159 -45 -47 -118 -176 -109
-192 4 -5 1 -9 -4 -9 -6 0 -10 -3 -9 -7 1 -5 -2 -24 -7 -43 -9 -39 -13 -190
-5 -190 3 0 7 -11 8 -24 3 -36 39 -125 74 -179 29 -45 102 -127 114 -127 3 0
14 -9 26 -20 23 -22 154 -89 184 -95 10 -2 19 -4 19 -5 0 -5 81 -13 135 -13
55 1 135 8 135 13 0 1 8 3 17 5 38 7 150 70 189 106 23 22 46 39 51 39 4 0 8
4 8 8 0 5 11 22 25 38 86 100 127 301 90 444 -16 61 -51 145 -70 166 -5 7 -25
32 -44 56 -38 48 -92 91 -165 132 -63 35 -138 63 -159 60 -9 -1 -17 1 -17 4 0
14 -148 8 -215 -8z"/>
</g>
</svg>
