
<svg xmlns="http://www.w3.org/2000/svg" xmlns:xlink="http://www.w3.org/1999/xlink" viewBox="0 0 96 96">
  <path fill="transparent" d="M0 0h96v96H0z"/>
  <defs>
    <path id="a" d="M0 0h96v96H0z"/>
  </defs>
  <clipPath id="b">
    <use xlink:href="#a" overflow="visible"/>
  </clipPath>
  <path fill="#567B8E" d="M74.15 92.535L92.536 74.15c1.952-1.952 1.952-5.118 0-7.071-1.953-1.951-5.119-1.951-7.071 0L67.08 85.465c-1.953 1.953-1.953 5.117 0 7.07s5.118 1.953 7.07 0" clip-path="url(#b)"/>
  <path fill="#2D4D68" d="M70.615 96c-1.87 0-3.628-.729-4.95-2.051-1.322-1.321-2.05-3.079-2.05-4.949s.728-3.628 2.051-4.949L84.05 65.666c1.322-1.322 3.08-2.051 4.95-2.051s3.628.729 4.95 2.051c1.322 1.321 2.05 3.079 2.05 4.949s-.728 3.628-2.05 4.949L75.565 93.949C74.243 95.271 72.485 96 70.615 96M89 67.615c-.801 0-1.555.312-2.121.879L68.494 86.879c-.567.566-.879 1.32-.879 2.121s.312 1.555.879 2.121c1.133 1.133 3.109 1.133 4.242 0h.001l18.385-18.385c.566-.566.878-1.32.878-2.121s-.312-1.555-.878-2.121c-.567-.567-1.321-.879-2.122-.879" clip-path="url(#b)"/>
  <path fill="#567B8E" d="M28.92 85.465L10.535 67.079c-1.952-1.951-5.118-1.951-7.071 0-1.952 1.953-1.952 5.119 0 7.071l18.385 18.385c1.953 1.953 5.118 1.953 7.071 0s1.954-5.117 0-7.07" clip-path="url(#b)"/>
  <path fill="#2D4D68" d="M25.385 96c-1.87 0-3.628-.729-4.95-2.051L2.05 75.564C.728 74.243 0 72.485 0 70.615s.728-3.628 2.05-4.949c1.322-1.322 3.08-2.051 4.95-2.051s3.628.729 4.95 2.051l18.384 18.385c1.323 1.321 2.051 3.079 2.051 4.949s-.728 3.628-2.051 4.949C29.013 95.271 27.255 96 25.385 96M7 67.615c-.801 0-1.555.312-2.121.879-.567.567-.879 1.32-.879 2.121s.312 1.555.878 2.121l18.385 18.385c1.134 1.133 3.11 1.133 4.243 0 .567-.566.879-1.32.879-2.121s-.312-1.555-.879-2.121L9.122 68.494c-.567-.567-1.321-.879-2.122-.879" clip-path="url(#b)"/>
  <defs>
    <path id="c" d="M20 2c-5.523 0-10 4.477-10 10v28c0 20.986 17.014 38 38 38 20.987 0 38-17.014 38-38V12c0-5.523-4.477-10-10-10H20z"/>
  </defs>
  <clipPath id="d">
    <use xlink:href="#c" overflow="visible"/>
  </clipPath>
  <path fill="#567B8E" d="M76 2H20c-5.523 0-10 4.477-10 10v28c0 20.987 17.013 38 38 38s38-17.013 38-38V12c0-5.523-4.477-10-10-10" clip-path="url(#d)"/>
  <path fill="#A8C4C6" d="M65-9H9C3.477-9-1-4.523-1 1v28c0 20.987 17.013 38 38 38s38-17.013 38-38V1c0-5.523-4.477-10-10-10" clip-path="url(#d)"/>
  <defs>
    <path id="e" d="M0 0h96v96H0z"/>
  </defs>
  <clipPath id="f">
    <use xlink:href="#e" overflow="visible"/>
  </clipPath>
  <path fill="#AAE1ED" d="M21 23c0 5.523 4.477 10 10 10s10-4.477 10-10-4.477-10-10-10-10 4.477-10 10" clip-path="url(#f)"/>
  <path fill="#2D4D68" d="M31 35c-6.617 0-12-5.383-12-12s5.383-12 12-12 12 5.383 12 12-5.383 12-12 12m0-20c-4.411 0-8 3.589-8 8s3.589 8 8 8 8-3.589 8-8-3.589-8-8-8" clip-path="url(#f)"/>
  <path fill="#AAE1ED" d="M55 23c0 5.523 4.477 10 10 10s10-4.477 10-10-4.477-10-10-10-10 4.477-10 10" clip-path="url(#f)"/>
  <path fill="#2D4D68" d="M65 35c-6.617 0-12-5.383-12-12s5.383-12 12-12 12 5.383 12 12-5.383 12-12 12m0-20c-4.411 0-8 3.589-8 8s3.589 8 8 8 8-3.589 8-8-3.589-8-8-8" clip-path="url(#f)"/>
  <path fill="#567B8E" d="M38 58c0 5.523 4.477 10 10 10s10-4.477 10-10-4.477-10-10-10-10 4.477-10 10" clip-path="url(#f)"/>
  <path fill="#2D4D68" d="M48 70c-6.617 0-12-5.383-12-12s5.383-12 12-12 12 5.383 12 12-5.383 12-12 12m0-20c-4.411 0-8 3.589-8 8s3.589 8 8 8 8-3.589 8-8-3.589-8-8-8" clip-path="url(#f)"/>
  <path fill="#2D4D68" d="M48 80C25.944 80 8 62.056 8 40V12C8 5.383 13.383 0 20 0h56c6.617 0 12 5.383 12 12v28c0 22.056-17.944 40-40 40M20 4c-4.411 0-8 3.589-8 8v28c0 19.851 16.149 36 36 36s36-16.149 36-36V12c0-4.411-3.589-8-8-8H20z" clip-path="url(#f)"/>
</svg>
